<svg width="776" height="506" viewBox="0 0 776 506" fill="none" xmlns="http://www.w3.org/2000/svg">
<path d="M108.044 478.466C-11.1689 434.494 -20.9906 252.231 61.4042 261.101C44.5677 203.238 125.054 92.0563 193.079 142.973C170.631 65.8243 380.947 -78.669 455.806 73.6828C515.752 5.40194 686.68 94.102 652.329 158.912C734.724 167.782 699.502 251.542 760.593 230.023" stroke="#2852DC" stroke-width="13.3334" stroke-miterlimit="2.61313" stroke-linecap="round" stroke-linejoin="round"/>
<path d="M111.923 479.959C-7.28923 435.988 -17.1139 256.108 65.281 264.978C48.4445 207.115 128.931 95.9337 196.955 146.85C174.508 69.7017 384.823 -74.7916 459.683 77.5603C519.628 9.27938 690.557 97.9795 656.206 162.789C738.6 171.659 703.379 255.419 764.469 233.9" stroke="#2852DC" stroke-width="13.3334" stroke-miterlimit="2.61313" stroke-linecap="round" stroke-linejoin="round"/>
<path d="M119.568 484.61C0.35445 440.638 -13.2382 259.985 69.1576 268.854C52.3211 210.992 132.807 99.8102 200.832 150.727C178.384 73.5782 388.7 -70.9161 463.56 81.4358C523.505 13.1549 694.434 101.855 660.082 166.665C742.477 175.535 707.256 259.295 768.346 237.775" stroke="#2852DC" stroke-width="13.3334" stroke-miterlimit="2.61313" stroke-linecap="round" stroke-linejoin="round"/>
<path d="M112.878 481.953C-6.33628 437.136 -7.48155 260.996 74.9142 270.035C58.0777 211.06 128.433 97.7405 196.458 149.636" stroke="#2852DC" stroke-width="13.3334" stroke-miterlimit="2.61313" stroke-linecap="round" stroke-linejoin="round"/>
<path d="M330.034 127.265L374.384 191.946H342.045C353.454 459.431 260.652 506.8 177.414 502.997C142.86 501.419 110.647 489.213 88.8958 474.738C84.0363 471.505 77.3825 467.403 73.5445 464.857C56.9048 453.821 48.4808 435.076 58.6549 438.602C61.4687 439.578 66.7563 444.855 72.2302 450.015C99.3579 475.583 142.381 490.058 177.289 491.664C307.685 497.664 322.614 361.698 317.468 191.946H285.127L330.034 127.265Z" stroke="#2852DC" stroke-width="5.33376" stroke-miterlimit="2.61313" stroke-linecap="round" stroke-linejoin="round"/>
<path d="M330.034 127.265L374.384 191.946H342.045C353.454 459.431 260.652 506.8 177.414 502.997C142.86 501.419 110.647 489.213 88.8958 474.738C84.0363 471.505 77.3825 467.403 73.5445 464.857C56.9048 453.821 48.4808 435.076 58.6549 438.602C61.4687 439.578 66.7563 444.855 72.2302 450.015C99.3579 475.583 142.381 490.058 177.289 491.664C307.685 497.664 322.614 361.698 317.468 191.946H285.127L330.034 127.265Z" fill="#2852DC"/>
<path d="M257.908 478.468C326.732 447.499 421.093 280.266 475.914 471.477M461.749 486.666C484.02 470.26 487.698 455.484 493.972 442.255C558.682 305.788 571.384 329.659 645.626 403.902C662.096 420.372 680.974 441.929 699.361 434.364" stroke="#2852DC" stroke-width="13.3334" stroke-miterlimit="2.61313" stroke-linecap="round" stroke-linejoin="round"/>
<path d="M408.405 306.247C422.216 306.247 433.412 295.549 433.412 282.352C433.412 269.155 422.216 258.457 408.405 258.457C394.594 258.457 383.398 269.155 383.398 282.352C383.398 295.549 394.594 306.247 408.405 306.247Z" stroke="#2852DC" stroke-width="10.6666" stroke-miterlimit="2.61313" stroke-linecap="round" stroke-linejoin="round"/>
</svg>
